PathFileType	4	(X/Y/Z)	Patient4_TMGait_0pt4_03_right_35.trc.trc
DataRate	CameraRate	NumFrames	NumMarkers	Units	OrigDataRate	OrigDataStartFrame	OrigNumFrames
74.468085106383	74.468085106383	4	33	mm	74.468085106383	18	       141
Frame#	Time	Sacral			L.Shoulder			Chest			R.Shoulder			Neck			R.ASIS			L.ASIS			R.Thigh.Superior			R.Thigh.Lateral			R.Thigh.Inferior			R.Patella			L.Thigh.Superior			L.Thigh.Lateral			L.Thigh.Inferior			L.Patella			L.Shank.Superior			L.Shank.Lateral			L.Shank.Inferior			R.Shank.Superior			R.Shank.Lateral			R.Shank.Inferior			R.Heel			R.Midfoot.Superior			R.Midfoot.Lateral			R.Toe			L.Heel			L.Midfoot.Lateral			L.Midfoot.Superior			L.Toe			L.Elbow			L.Wrist			R.Elbow			R.Wrist			
		X1	Y1	Z1	X2	Y2	Z2	X3	Y3	Z3	X4	Y4	Z4	X5	Y5	Z5	X6	Y6	Z6	X7	Y7	Z7	X8	Y8	Z8	X9	Y9	Z9	X10	Y10	Z10	X11	Y11	Z11	X12	Y12	Z12	X13	Y13	Z13	X14	Y14	Z14	X15	Y15	Z15	X16	Y16	Z16	X17	Y17	Z17	X18	Y18	Z18	X19	Y19	Z19	X20	Y20	Z20	X21	Y21	Z21	X22	Y22	Z22	X23	Y23	Z23	X24	Y24	Z24	X25	Y25	Z25	X26	Y26	Z26	X27	Y27	Z27	X28	Y28	Z28	X29	Y29	Z29	X30	Y30	Z30	X31	Y31	Z31	X32	Y32	Z32	X33	Y33	Z33	

18	45.878285714286	848.145999394039	1009.679647887654	396.509690093750	1062.742507216833	1429.554403948426	219.145713890526	1140.587869948283	1364.049160221032	394.651346412524	1035.968147575569	1443.953014353338	553.884576889706	1022.365236859633	1496.733647556114	371.083873486772	1064.782907897611	948.120356148869	538.708544769077	1076.666411553506	960.571916651640	262.331797132338	1124.314771543532	757.503758752512	522.854706134855	1064.671115097382	647.144427780470	598.686167578056	1150.746362885119	595.974903241577	522.702541256199	1176.760981654174	520.145833233433	541.665244284520	1091.410666888947	738.264741549077	295.745064479889	987.155587595023	634.470784692251	228.338507865812	1053.385146545052	547.203160482564	294.892833446558	1042.373156559105	480.467204345518	304.091495315102	1012.270035313424	411.875164977758	296.002746416453	915.039360576984	303.402203088572	244.547611356162	955.318696667765	189.603763141954	319.159958011485	1166.108437670241	438.009547355606	557.736629392972	1122.252533301917	325.079906311772	628.788300385575	1197.909843517716	241.504953742339	580.896633615719	1120.003233023686	47.738420296511	563.460818951373	1279.955992119310	130.723300620108	596.490024433153	1207.022894165255	51.534563844987	634.188321626164	1407.511956150826	100.958132260454	618.721296168326	820.609344103093	39.314725508683	366.338752303153	892.259746875364	34.918866526444	283.826961664120	976.828412724302	95.157627119764	309.666080643645	1104.722438168957	41.671819324080	277.813693631245	1117.096540166027	1093.883786871061	79.053603005503	1365.171504115160	1016.932845487600	77.216980297356	898.598276668524	1127.883180302038	666.858450495951	907.661856660756	865.601952452733	679.482759483041	
19	45.891714285714	848.971181554078	1008.871017717683	398.281558389461	1062.378809188512	1428.888009481980	220.762468356034	1140.571157152908	1363.638337976765	396.189776669028	1035.979822862297	1443.405875477143	555.521335619549	1022.070195027241	1496.086845489140	372.681161786971	1065.541836425330	947.098876505985	540.376621029495	1077.471134827915	960.102563828672	263.969446150113	1123.488326466414	755.231227348410	524.784395431242	1062.053996614635	644.853374770655	599.394920938276	1148.242316707532	593.700738609764	523.614913096773	1173.509223296820	518.381871655768	542.026825164219	1090.853586239342	737.361373156009	297.136440438678	985.624778735853	634.299579180793	229.368707657737	1050.986577189191	546.455962591114	295.796976264206	1039.485287143819	479.726847339832	304.766280289331	1008.890695882493	411.409997570981	296.564653613073	910.864834277198	303.649006547712	244.962818779350	950.550290946353	189.416670537785	319.289855231962	1163.138616514684	436.003125138697	557.731530923699	1119.166687312746	322.513224939615	627.578297449104	1195.606218000486	239.589462101191	579.863144880776	1118.729048743203	46.262921314303	560.580576872211	1278.191704710215	128.583568425244	595.095339575061	1204.977597081681	49.776478122808	632.060913578338	1405.487481899123	98.678804265646	618.343494128057	815.202253112106	39.376459782972	366.296598931794	886.850476363399	34.912287809289	283.818835488245	971.453494055660	95.117017256342	309.651240169378	1099.316195815001	41.569747129778	277.803174378152	1117.157096421363	1092.596635965650	81.952494455260	1364.670638079991	1013.336598108858	80.027886124440	901.228112714143	1126.344691268819	669.236822816064	914.297713998908	864.209989320940	681.419408245500	
20	45.905142857143	849.925475103098	1007.907173659731	400.347056315572	1061.805154849655	1428.192179656359	222.588075539273	1140.487049503546	1363.251775807021	397.896289376150	1035.944724424663	1442.792499263907	557.390214378605	1021.639445069462	1495.383657032533	374.515154227498	1066.598525696096	946.013106245669	542.169301421911	1078.339491898121	959.625244693627	265.738945943097	1123.613693523525	753.380668728606	526.605596214585	1060.610326534395	642.648998756917	599.833022688479	1147.033683661725	591.806508554747	524.334003923561	1171.475461108890	516.481066195512	542.187107350635	1090.397915744665	736.424359019270	298.519816494254	984.140106274023	634.115525100327	230.486494427809	1048.697586309814	545.681814298696	296.708595387873	1036.738945934170	478.942532289339	305.457196949712	1005.610955429867	410.932081527608	297.148338239484	906.734638357020	303.927764543187	245.435976740612	945.816029663339	189.233396404840	319.429426118129	1160.615624003574	433.529186674689	557.343222498244	1115.380025972658	319.989951742283	625.950639159622	1191.536303699317	236.964448026962	578.364590975302	1113.536371683503	45.297347617505	557.372445008645	1273.235493875295	125.246882026630	593.288034987002	1198.961275173645	47.800596897042	629.665091839972	1399.889119505761	93.918516293424	617.640355363777	809.799326897145	39.445951708728	366.249073477380	881.446241026237	34.909004795724	283.813551338292	966.084540330106	95.083079001618	309.633662474704	1093.910707703573	41.465149982380	277.786485260942	1116.778476891440	1091.199311321652	85.078235906365	1363.504009099195	1008.790384502298	82.871288300779	904.326676847189	1124.570755707071	672.018538114821	922.131209682385	862.709636768172	683.690323358305	
21	45.918571428571	851.001728868388	1006.809305156303	402.695910739810	1061.046782981804	1427.468736109887	224.628674856221	1140.352611298257	1362.891708468050	399.779477937134	1035.879735159506	1442.120890757575	559.497258734863	1021.097869068801	1494.633787557152	376.588671521498	1067.963818153302	944.876341493006	544.065065925781	1079.251120126747	959.143085956795	267.622918175425	1124.613499094726	751.854818494901	528.299693220652	1060.207796776873	640.527640185418	600.047831028106	1146.948453184166	590.207168651271	524.876841852285	1170.485593465682	514.443013190899	542.080486778876	1090.023934989422	735.461388644266	299.844492092668	982.668688821849	633.929039104725	231.683679948745	1046.506018695519	544.888837107810	297.600673839053	1034.134589089595	478.120621469243	306.146867143810	1002.428153474642	410.446594034761	297.748176643073	902.641827163523	304.246338458211	245.970038109450	941.116227895063	189.061352441473	319.578872017971	1158.555670653027	430.660547715734	556.600466545714	1111.228313940880	317.498542291887	624.091792922330	1186.163934962625	233.724182325503	576.502246771955	1105.253423190022	44.633756669236	554.162396114382	1265.815343433746	120.989399997054	591.153097849270	1189.921006967236	45.668858307169	627.218215112806	1391.598752407295	87.292035848357	616.550888796843	804.403151040629	39.537542014831	366.194567641445	876.050529376695	34.918370348683	283.812331501612	960.726971672471	95.060978563651	309.613727251708	1088.507004869528	41.353587580706	277.762480522388	1115.969893165697	1089.701475753791	88.417979882129	1361.633651991013	1003.300771633335	85.706767397971	907.810413624956	1122.632101872151	675.186260347901	931.085604779802	861.209495402986	686.301469798408	
